<svg width="24" height="24" viewBox="0 0 24 24" fill="none" xmlns="http://www.w3.org/2000/svg">
<path d="M17.086 0.906319H7.50915C3.3493 0.906319 0.869385 3.38623 0.869385 7.54609V17.1115C0.869385 21.2828 3.3493 23.7627 7.50915 23.7627H17.0745C21.2344 23.7627 23.7143 21.2828 23.7143 17.1229V7.54609C23.7257 3.38623 21.2458 0.906319 17.086 0.906319ZM9.90907 17.1229C9.90907 17.8543 9.31481 18.4486 8.57197 18.4486C7.84057 18.4486 7.24631 17.8543 7.24631 17.1229V13.3973C7.24631 12.6659 7.84057 12.0716 8.57197 12.0716C9.31481 12.0716 9.90907 12.6659 9.90907 13.3973V17.1229ZM17.3488 17.1229C17.3488 17.8543 16.7545 18.4486 16.0231 18.4486C15.2803 18.4486 14.686 17.8543 14.686 17.1229V7.54609C14.686 6.81468 15.2803 6.22042 16.0231 6.22042C16.7545 6.22042 17.3488 6.81468 17.3488 7.54609V17.1229Z" fill="#D2D2D2"/>
</svg>
