<svg width="23" height="24" viewBox="0 0 23 24" fill="none" xmlns="http://www.w3.org/2000/svg">
<path d="M20.6181 6.4147L14.0355 1.80914C12.2412 0.552045 9.48705 0.620615 7.76139 1.95771L2.03588 6.42613C0.89306 7.31752 -0.00976562 9.14603 -0.00976562 10.586V18.4714C-0.00976562 21.3856 2.35587 23.7627 5.27005 23.7627H17.5896C20.5038 23.7627 22.8694 21.397 22.8694 18.4828V10.7345C22.8694 9.19175 21.8752 7.29467 20.6181 6.4147ZM12.2869 19.1914C12.2869 19.66 11.8984 20.0485 11.4298 20.0485C10.9613 20.0485 10.5727 19.66 10.5727 19.1914V15.7629C10.5727 15.2944 10.9613 14.9058 11.4298 14.9058C11.8984 14.9058 12.2869 15.2944 12.2869 15.7629V19.1914Z" fill="#6373F7"/>
</svg>
