<svg width="18" height="18" viewBox="0 0 18 18" fill="none" xmlns="http://www.w3.org/2000/svg">
<path d="M15.6749 7.3875L16.1174 14.805C16.1324 15.0075 16.0349 15.1425 15.9824 15.2025C15.9224 15.27 15.7949 15.375 15.5849 15.375H13.5374L15.1574 7.3875H15.6749ZM16.4999 4.5L16.4924 4.515C16.5074 4.695 16.4924 4.8825 16.4474 5.07L10.9199 15.2175C10.7399 15.975 10.0649 16.5 9.28491 16.5H15.5849C16.5524 16.5 17.3174 15.6825 17.2424 14.715L16.4999 4.5Z" fill="#0A0A0A"/>
<path d="M8.58768 1.67956C8.66268 1.37956 8.47518 1.07206 8.17518 0.997059C7.87518 0.929559 7.56768 1.10956 7.49268 1.40956L7.11768 2.96206H8.27268L8.58768 1.67956Z" fill="#0A0A0A"/>
<path d="M13.5374 1.65791C13.6049 1.35041 13.4099 1.05791 13.1024 0.990406C12.8024 0.922906 12.5024 1.11791 12.4349 1.42541L12.0974 2.97791H13.2524L13.5374 1.65791Z" fill="#0A0A0A"/>
<path d="M16.3652 3.99709C16.1177 3.39709 15.5327 2.96959 14.8127 2.96959H13.2527L12.8327 4.91209C12.7727 5.17459 12.5402 5.35459 12.2852 5.35459C12.2477 5.35459 12.2027 5.35459 12.1652 5.33959C11.8652 5.27209 11.6702 4.97209 11.7302 4.67209L12.0977 2.96209H8.27268L7.80018 4.91209C7.74018 5.16709 7.50768 5.33959 7.25268 5.33959C7.20768 5.33959 7.16268 5.33209 7.11768 5.32459C6.81768 5.24959 6.63018 4.94959 6.70518 4.64209L7.11018 2.95459H5.58768C4.85268 2.95459 4.20018 3.43459 3.98268 4.13959L0.825182 14.3021C0.495182 15.3896 1.29768 16.4996 2.43018 16.4996H12.2852C13.0652 16.4996 13.7402 15.9746 13.9202 15.2171L16.4477 5.06959C16.4927 4.88209 16.5077 4.69459 16.4927 4.51459C16.4777 4.33459 16.4402 4.15459 16.3652 3.99709ZM11.0252 12.5621H5.02518C4.71768 12.5621 4.46268 12.3071 4.46268 11.9996C4.46268 11.6921 4.71768 11.4371 5.02518 11.4371H11.0252C11.3327 11.4371 11.5877 11.6921 11.5877 11.9996C11.5877 12.3071 11.3327 12.5621 11.0252 12.5621ZM11.7752 9.56209H5.77518C5.46768 9.56209 5.21268 9.30709 5.21268 8.99959C5.21268 8.69209 5.46768 8.43709 5.77518 8.43709H11.7752C12.0827 8.43709 12.3377 8.69209 12.3377 8.99959C12.3377 9.30709 12.0827 9.56209 11.7752 9.56209Z" fill="#0A0A0A"/>
</svg>
