<svg width="15" height="9" viewBox="0 0 15 9" fill="none" xmlns="http://www.w3.org/2000/svg">
<path d="M10.3084 1.13719C10.0175 0.842952 9.54333 0.83924 9.24779 1.12892L3.70403 6.60802L1.2941 4.11315C1.00667 3.81357 0.530821 3.80374 0.231278 4.09117C-0.0682979 4.3786 -0.0781307 4.85445 0.209301 5.154C0.210603 5.15533 0.211873 5.15667 0.213175 5.158L3.15156 8.20312C3.29219 8.34657 3.48438 8.42781 3.68527 8.42862H3.69354C3.89062 8.428 4.07959 8.34999 4.21973 8.21139L10.3017 2.19783C10.5955 1.90643 10.5985 1.43234 10.3084 1.13719Z" fill="#BCBCBC"/>
<path d="M7.66169 8.20259C7.80195 8.34569 7.99353 8.42686 8.1939 8.42809H8.20217C8.39925 8.42747 8.58822 8.34946 8.72835 8.21086L14.8103 2.1973C15.086 1.88688 15.0578 1.41178 14.7474 1.1361C14.466 0.886181 14.0432 0.882893 13.7579 1.12839L8.21643 6.60749L8.01873 6.40227C7.73133 6.10269 7.25548 6.09283 6.9559 6.38026C6.65633 6.66766 6.64646 7.14351 6.93389 7.44308C6.9352 7.44445 6.9365 7.44579 6.9378 7.44712L7.66169 8.20259Z" fill="#BCBCBC"/>
</svg>
