<svg width="20" height="22" viewBox="0 0 20 22" fill="none" xmlns="http://www.w3.org/2000/svg">
<path d="M18.6595 13.1445L17.4328 11.1037C17.1615 10.6586 16.9226 9.80103 16.9226 9.27998V7.25003C16.9226 3.30955 13.7203 0.107224 9.79068 0.107224C5.85019 0.118079 2.64787 3.30955 2.64787 7.25003V9.26912C2.64787 9.79018 2.40905 10.6477 2.14853 11.0928L0.921873 13.1336C0.455094 13.9261 0.34654 14.8271 0.639634 15.6086C0.932728 16.4011 1.5949 17.0307 2.46333 17.3129C3.63571 17.7037 4.81894 17.986 6.02388 18.1922C6.14329 18.2139 6.2627 18.2248 6.38211 18.2465C6.53408 18.2682 6.69691 18.2899 6.85974 18.3116C7.14198 18.355 7.42422 18.3876 7.71731 18.4093C8.4012 18.4744 9.09594 18.507 9.79068 18.507C10.4746 18.507 11.1585 18.4744 11.8315 18.4093C12.0812 18.3876 12.3308 18.3659 12.5696 18.3333C12.765 18.3116 12.9604 18.2899 13.1558 18.2573C13.2752 18.2465 13.3947 18.2248 13.5141 18.2031C14.7299 18.0077 15.9348 17.7037 17.1072 17.3129C17.943 17.0307 18.5835 16.4011 18.8874 15.5978C19.1914 14.7836 19.1046 13.8935 18.6595 13.1445ZM10.5831 8.73721C10.5831 9.19314 10.214 9.56222 9.75811 9.56222C9.30219 9.56222 8.93311 9.19314 8.93311 8.73721V5.37206C8.93311 4.91614 9.30219 4.54705 9.75811 4.54705C10.214 4.54705 10.5831 4.91614 10.5831 5.37206V8.73721Z" fill="#D2D2D2"/>
<path d="M12.8413 19.6025C12.3853 20.8617 11.1804 21.7627 9.76921 21.7627C8.91164 21.7627 8.06492 21.4153 7.46788 20.7965C7.12051 20.4709 6.85998 20.0367 6.70801 19.5916C6.84913 19.6133 6.99025 19.6242 7.14222 19.6459C7.39189 19.6784 7.65242 19.711 7.91295 19.7327C8.5317 19.787 9.16131 19.8196 9.79092 19.8196C10.4097 19.8196 11.0284 19.787 11.6363 19.7327C11.8643 19.711 12.0923 19.7002 12.3094 19.6676C12.483 19.6459 12.6567 19.6242 12.8413 19.6025Z" fill="#D2D2D2"/>
</svg>
