<svg width="23" height="22" viewBox="0 0 23 22" fill="none" xmlns="http://www.w3.org/2000/svg">
<path d="M20.7518 7.79869C18.6833 7.79869 17.8376 6.33589 18.8661 4.54166C19.4604 3.5017 19.1061 2.17603 18.0661 1.58177L16.0891 0.450378C15.1862 -0.0867462 14.0206 0.233243 13.4834 1.13607L13.3577 1.3532C12.3292 3.14743 10.6378 3.14743 9.59787 1.3532L9.47216 1.13607C8.95789 0.233243 7.79222 -0.0867462 6.88939 0.450378L4.91232 1.58177C3.87235 2.17603 3.51808 3.51313 4.11235 4.55309C5.15231 6.33589 4.30662 7.79869 2.23813 7.79869C1.0496 7.79869 0.0667725 8.77009 0.0667725 9.97005V11.9814C0.0667725 13.1699 1.03817 14.1528 2.23813 14.1528C4.30662 14.1528 5.15231 15.6156 4.11235 17.4098C3.51808 18.4498 3.87235 19.7754 4.91232 20.3697L6.88939 21.5011C7.79222 22.0382 8.95789 21.7182 9.49502 20.8154L9.62073 20.5982C10.6493 18.804 12.3406 18.804 13.3806 20.5982L13.5063 20.8154C14.0434 21.7182 15.2091 22.0382 16.1119 21.5011L18.089 20.3697C19.129 19.7754 19.4832 18.4383 18.889 17.4098C17.849 15.6156 18.6947 14.1528 20.7632 14.1528C21.9517 14.1528 22.9345 13.1814 22.9345 11.9814V9.97005C22.9231 8.78152 21.9517 7.79869 20.7518 7.79869ZM11.4949 14.6899C9.4493 14.6899 7.78079 13.0214 7.78079 10.9757C7.78079 8.93008 9.4493 7.26157 11.4949 7.26157C13.5406 7.26157 15.2091 8.93008 15.2091 10.9757C15.2091 13.0214 13.5406 14.6899 11.4949 14.6899Z" fill="#D2D2D2"/>
</svg>
