<svg width="15" height="9" viewBox="0 0 15 9" fill="none" xmlns="http://www.w3.org/2000/svg">
<path d="M10.3084 1.13717C10.0175 0.842937 9.54333 0.839225 9.24779 1.1289L3.70403 6.608L1.2941 4.11313C1.00667 3.81356 0.530821 3.80373 0.231278 4.09116C-0.0682979 4.37859 -0.0781307 4.85444 0.209301 5.15398C0.210603 5.15532 0.211873 5.15665 0.213175 5.15799L3.15156 8.2031C3.29219 8.34656 3.48438 8.42779 3.68527 8.42861H3.69354C3.89062 8.42799 4.07959 8.34998 4.21973 8.21137L10.3017 2.19782C10.5955 1.90641 10.5985 1.43232 10.3084 1.13717Z" fill="#76EF83"/>
<path d="M7.66169 8.20257C7.80195 8.34567 7.99353 8.42684 8.1939 8.42808H8.20217C8.39925 8.42746 8.58822 8.34945 8.72835 8.21084L14.8103 2.19729C15.086 1.88687 15.0578 1.41177 14.7474 1.13609C14.466 0.886166 14.0432 0.882878 13.7579 1.12837L8.21643 6.60747L8.01873 6.40225C7.73133 6.10268 7.25548 6.09281 6.9559 6.38024C6.65633 6.66764 6.64646 7.14349 6.93389 7.44307C6.9352 7.44444 6.9365 7.44577 6.9378 7.44711L7.66169 8.20257Z" fill="#76EF83"/>
</svg>
