<svg width="18" height="18" viewBox="0 0 18 18" fill="none" xmlns="http://www.w3.org/2000/svg">
<path d="M15.7834 4.44935C15.4251 4.19102 15.0167 3.99935 14.5751 3.89102C14.2751 3.80768 13.9667 3.76602 13.6501 3.76602H10.5501C10.0667 3.76602 10.0334 3.72435 9.77508 3.38268L8.60841 1.83268C8.06675 1.10768 7.64175 0.666016 6.28341 0.666016H4.35008C2.31675 0.666016 0.666748 2.31602 0.666748 4.34935V13.6493C0.666748 15.6827 2.31675 17.3327 4.35008 17.3327H13.6501C15.6834 17.3327 17.3334 15.6827 17.3334 13.6493V7.44935C17.3334 6.20768 16.7251 5.11602 15.7834 4.44935ZM10.9917 12.616H7.00008C6.67508 12.616 6.42508 12.3577 6.42508 12.0327C6.42508 11.716 6.67508 11.4493 7.00008 11.4493H10.9917C11.3167 11.4493 11.5751 11.716 11.5751 12.0327C11.5751 12.3577 11.3167 12.616 10.9917 12.616Z" fill="black"/>
</svg>
